HIERARCHY
ROOT Hips
{
  OFFSET 13.6774 106.653 -34.4427
  CHANNELS 6 Xposition Yposition Zposition Zrotation Xrotation Yrotation
  JOINT ToSpine
  {
    OFFSET -2.69724 7.43032 -0.144315
    CHANNELS 3 Zrotation Xrotation Yrotation
    JOINT Spine
    {
      OFFSET -0.0310711 10.7595 1.96963
      CHANNELS 3 Zrotation Xrotation Yrotation
      JOINT Spine1
      {
        OFFSET 19.9056 3.91189 0.764692
        CHANNELS 3 Zrotation Xrotation Yrotation
        JOINT Neck
        {
          OFFSET 25.9749 7.03908 -0.130764
          CHANNELS 3 Zrotation Xrotation Yrotation
          JOINT Head
          {
            OFFSET 9.52751 0.295786 -0.907742
            CHANNELS 3 Zrotation Xrotation Yrotation
            End Site
            {
              OFFSET 16.4037 0.713936 2.7358
            }
          }
        }
        JOINT LeftShoulder
        {
          OFFSET 17.7449 4.33886 11.7777
          CHANNELS 3 Zrotation Xrotation Yrotation
          JOINT LeftArm
          {
            OFFSET 0.911315 1.27913 9.80584
            CHANNELS 3 Zrotation Xrotation Yrotation
            JOINT LeftForeArm
            {
              OFFSET 28.6126 1.18197 -3.53199
              CHANNELS 3 Zrotation Xrotation Yrotation
              JOINT LeftHand
              {
                OFFSET 27.5088 0.0218783 0.327423
                CHANNELS 3 Zrotation Xrotation Yrotation
                End Site
                {
                  OFFSET 18.6038 -0.000155887 0.382096
                }
              }
            }
          }
        }
        JOINT RightShoulder
        {
          OFFSET 17.1009 2.89543 -12.2328
          CHANNELS 3 Zrotation Xrotation Yrotation
          JOINT RightArm
          {
            OFFSET 1.4228 0.178766 -10.211
            CHANNELS 3 Zrotation Xrotation Yrotation
            JOINT RightForeArm
            {
              OFFSET 28.733 1.87905 2.64907
              CHANNELS 3 Zrotation Xrotation Yrotation
              JOINT RightHand
              {
                OFFSET 27.4588 0.290562 -0.101845
                CHANNELS 3 Zrotation Xrotation Yrotation
                End Site
                {
                  OFFSET 17.8396 -0.255518 -0.000602873
                }
              }
            }
          }
        }
      }
    }
  }
  JOINT LeftUpLeg
  {
    OFFSET -5.61296 -2.22332 -10.2353
    CHANNELS 3 Zrotation Xrotation Yrotation
    JOINT LeftLeg
    {
      OFFSET 2.56703 -44.7417 -7.93097
      CHANNELS 3 Zrotation Xrotation Yrotation
      JOINT LeftFoot
      {
        OFFSET 3.16933 -46.5642 -3.96578
        CHANNELS 3 Zrotation Xrotation Yrotation
        JOINT LeftToeBase
        {
          OFFSET 0.346054 -6.02161 12.8035
          CHANNELS 3 Zrotation Xrotation Yrotation
          End Site
          {
            OFFSET 0.134235 -1.35082 5.13018
          }
        }
      }
    }
  }
  JOINT RightUpLeg
  {
    OFFSET -5.7928 -1.72406 10.6446
    CHANNELS 3 Zrotation Xrotation Yrotation
    JOINT RightLeg
    {
      OFFSET -2.57161 -44.7178 -7.85259
      CHANNELS 3 Zrotation Xrotation Yrotation
      JOINT RightFoot
      {
        OFFSET -3.10148 -46.5936 -4.03391
        CHANNELS 3 Zrotation Xrotation Yrotation
        JOINT RightToeBase
        {
          OFFSET -0.0828122 -6.13587 12.8035
          CHANNELS 3 Zrotation Xrotation Yrotation
          End Site
          {
            OFFSET -0.131328 -1.35082 5.13018
          }
        }
      }
    }
  }
}
MOTION
Frames: 8
Frame Time: 0.03333333333333333
0.0000 93.1000 0.0000 68.6148 75.0916 6.7217 -70.9953 0.4330 88.0165 133.6246 69.3273 -39.4274 6.3885 24.9440 -2.6497 -142.9922 30.0101 166.0871 -165.0487 71.1831 -174.4324 1.5593 1.9150 -26.6093 -73.0124 31.8516 -97.8207 9.7697 15.4738 -29.2306 13.3019 -0.2208 -0.8847 -0.4870 0.6645 21.0972 -78.9037 -36.6648 103.0075 3.5318 -15.9197 18.1608 6.8096 -0.8234 0.2178 -37.0460 4.2745 78.1691 -3.1719 44.1101 -6.0872 -2.4955 5.1523 0.6750 -6.5209 -7.9347 23.7512 -35.4581 2.1404 97.2467 38.8922 82.0814 -13.9595 -9.4734 -11.8985 1.3694 7.7837 -1.2719 -16.3838 
0.0000 93.1000 0.0000 65.6489 62.1285 6.8615 -70.9789 3.9039 88.0106 142.1501 70.9390 -46.3759 8.1375 28.1401 -3.3011 -143.2573 33.8804 162.2190 -178.8741 74.8501 -158.5014 2.6651 1.4591 -27.0822 -67.5136 36.0414 -96.7918 6.1576 12.4419 -22.2482 12.2380 2.3283 -1.9527 0.5927 2.1918 18.9886 -67.3146 -31.7995 119.8138 6.1000 -10.5861 22.1888 4.8594 -3.3171 -0.9087 -38.9097 10.9057 76.7550 -2.7362 38.3190 -10.5461 -2.4465 4.3370 -1.3118 -5.5782 -1.2310 22.8403 -32.1655 0.4436 98.8152 43.9193 82.8772 -15.1666 -9.3710 -14.7998 2.4305 5.5154 -2.2307 -17.4164 
0.0000 93.1000 0.0000 65.0003 48.9764 5.8613 -70.9834 1.0868 87.9942 148.9995 70.5384 -52.8082 6.7725 30.2465 -4.3364 -144.9290 36.6205 159.1342 163.6483 77.1378 -140.3958 2.0265 0.8562 -26.6030 -85.7772 40.7578 -82.7851 2.3005 17.1703 -16.1205 12.3842 0.0728 -0.1709 -0.2773 4.1486 17.5001 -63.9413 -28.2651 132.0231 8.0108 -10.6813 25.7330 7.2109 -0.8840 1.3597 -44.1516 13.8791 73.6766 -2.9210 33.9838 -11.7230 -2.7712 3.2646 0.1365 -6.7887 -0.2835 22.5892 -24.4064 -2.6682 97.0160 63.0836 84.1614 -32.1244 -9.8864 -14.8291 1.2471 6.5041 -7.8278 -19.9085 
0.0000 93.1000 0.0000 65.0355 39.2089 7.0097 -70.9845 0.7662 87.9841 154.9791 68.0124 -57.6632 6.1229 30.0901 -4.2718 -145.2115 37.8521 154.1051 161.8581 78.2473 -135.4110 2.1492 0.6850 -25.0817 -108.7114 43.3277 -64.6738 -1.2615 22.5605 -8.5582 12.5006 -0.0802 0.8016 -0.2342 4.7893 16.1349 -65.6212 -27.6640 142.9487 9.8042 -13.6331 29.7620 7.7435 -0.5799 2.4481 -43.7394 16.0451 69.7080 -3.5664 40.0293 -12.4159 -2.7032 -0.7538 -0.2428 -6.6980 -18.1618 27.4175 -16.6469 -7.8008 90.8070 92.7742 84.0937 -67.0222 -10.0304 -14.7782 1.2266 7.6559 -14.2627 -15.9829 
0.0000 93.1000 0.0000 65.0379 34.2489 6.0532 -70.9843 0.7578 87.9755 155.9301 64.6897 -63.1952 5.4182 29.7752 -2.7813 -145.0583 38.2514 151.0855 160.7239 78.7470 -134.3990 2.0271 -0.7726 -24.2098 -115.2442 47.9041 -63.8865 -3.8958 24.8142 1.6112 12.6649 -0.0085 1.3214 -0.0863 5.3787 14.6550 -66.1259 -33.7992 151.9528 12.7559 -14.4151 37.0456 7.9808 -0.5937 3.2105 -39.2592 17.4448 75.8022 -4.8479 50.0208 -12.8098 -0.2129 -3.8577 -1.0393 -6.9765 -29.7792 23.9727 -10.2248 -14.8764 85.9735 119.9272 83.9867 -99.9499 -9.5112 -13.3212 1.2684 8.7945 -19.0920 -15.1510 
0.0000 93.1000 0.0000 64.0552 32.6581 4.0468 -70.9895 1.1070 87.9735 155.0599 60.5562 -66.9557 4.6040 27.5710 -0.2623 -148.1273 38.2113 147.1337 160.6818 79.0201 -134.4034 1.9303 -2.8368 -23.9351 -116.8921 51.2315 -72.7115 -4.9770 29.4854 7.8785 12.2223 0.3127 1.0608 0.0163 5.4040 15.1261 -64.9602 -37.5228 157.2240 13.2314 -12.2548 44.8181 8.0272 -0.9382 2.9798 -33.0040 16.5272 83.4133 -5.9385 56.2770 -13.7981 3.2819 -3.3944 -1.7993 -7.8552 -36.4869 19.5302 -4.7398 -21.3085 83.8719 124.8848 84.0465 -112.0305 -8.6493 -10.9635 1.4274 9.2669 -19.1740 -17.3233 
0.0000 93.1000 0.0000 60.1019 32.7809 6.9092 -71.0005 0.4496 87.9761 152.9606 58.0753 -65.5100 3.4455 26.0241 0.3759 -149.1630 38.2139 145.2130 164.5991 78.9048 -137.1323 1.3914 -5.3234 -24.3392 -115.9917 51.9948 -84.6734 -5.0083 35.7635 8.9922 11.6771 -0.3098 1.0727 -0.4605 5.0934 16.0302 -61.7485 -36.5083 162.7302 14.7365 -11.8241 49.0358 8.4593 -0.4735 3.0496 -25.0077 13.8214 81.2362 -8.0930 62.9700 -12.8248 4.5000 -2.0491 -1.5128 -8.8666 -39.9464 17.6567 0.0820 -25.1285 79.0282 119.8681 85.0325 -114.0629 -8.0810 -10.0759 0.8758 9.3237 -18.9446 -17.7451 
0.0000 93.1000 0.0000 55.9646 32.0251 9.2838 -71.0066 -0.1134 87.9799 153.0105 55.9989 -66.0599 3.7806 24.7660 0.8302 -150.1324 38.1103 144.1934 166.6637 78.9504 -138.0468 0.5997 -8.3442 -24.7799 -113.1048 50.9439 -98.7003 -3.6763 38.0006 8.8623 11.7234 -0.7541 0.9460 -0.8655 5.0161 17.0586 -59.1331 -36.9633 164.2119 19.6826 -13.4127 52.8279 8.7541 -0.1325 2.3997 -18.2099 11.0301 80.9927 -10.1508 67.1306 -10.0912 5.2356 -1.7562 -1.1185 -8.7500 -42.0546 18.3752 5.0533 -27.0382 77.0177 126.9204 84.1040 -122.1813 -6.9514 -9.9796 0.5033 8.9326 -16.3451 -18.7811 
